<svg id="visual" viewBox="0 0 2400 1600" width="2400" height="1600" xmlns="http://www.w3.org/2000/svg" xmlns:xlink="http://www.w3.org/1999/xlink" version="1.1"><rect x="0" y="0" width="2400" height="1600" fill="#FFFFFF"></rect><path d="M0 1264L100 1259.2C200 1254.3 400 1244.7 600 1241.5C800 1238.3 1000 1241.7 1200 1256.8C1400 1272 1600 1299 1800 1299C2000 1299 2200 1272 2300 1258.5L2400 1245L2400 1601L2300 1601C2200 1601 2000 1601 1800 1601C1600 1601 1400 1601 1200 1601C1000 1601 800 1601 600 1601C400 1601 200 1601 100 1601L0 1601Z" fill="#ef7d00"></path><path d="M0 1322L100 1329.5C200 1337 400 1352 600 1359.7C800 1367.3 1000 1367.7 1200 1364.8C1400 1362 1600 1356 1800 1356.5C2000 1357 2200 1364 2300 1367.5L2400 1371L2400 1601L2300 1601C2200 1601 2000 1601 1800 1601C1600 1601 1400 1601 1200 1601C1000 1601 800 1601 600 1601C400 1601 200 1601 100 1601L0 1601Z" fill="#e94743"></path><path d="M0 1521L100 1515.2C200 1509.3 400 1497.7 600 1498.5C800 1499.3 1000 1512.7 1200 1518.5C1400 1524.3 1600 1522.7 1800 1517.2C2000 1511.7 2200 1502.3 2300 1497.7L2400 1493L2400 1601L2300 1601C2200 1601 2000 1601 1800 1601C1600 1601 1400 1601 1200 1601C1000 1601 800 1601 600 1601C400 1601 200 1601 100 1601L0 1601Z" fill="#c62368"></path></svg>