<svg id="visual" viewBox="0 0 900 600" width="900" height="600" xmlns="http://www.w3.org/2000/svg" xmlns:xlink="http://www.w3.org/1999/xlink" version="1.1"><rect x="0" y="0" width="900" height="600" fill="#FFFFFF"></rect><path d="M0 473L37.5 471.2C75 469.3 150 465.7 225 464.5C300 463.3 375 464.7 450 470.3C525 476 600 486 675 486C750 486 825 476 862.5 471L900 466L900 601L862.5 601C825 601 750 601 675 601C600 601 525 601 450 601C375 601 300 601 225 601C150 601 75 601 37.5 601L0 601Z" fill="#ef7d00"></path><path d="M0 495L37.5 497.8C75 500.7 150 506.3 225 509.2C300 512 375 512 450 511C525 510 600 508 675 508.3C750 508.7 825 511.3 862.5 512.7L900 514L900 601L862.5 601C825 601 750 601 675 601C600 601 525 601 450 601C375 601 300 601 225 601C150 601 75 601 37.5 601L0 601Z" fill="#e94743"></path><path d="M0 570L37.5 567.8C75 565.7 150 561.3 225 561.7C300 562 375 567 450 569.2C525 571.3 600 570.7 675 568.5C750 566.3 825 562.7 862.5 560.8L900 559L900 601L862.5 601C825 601 750 601 675 601C600 601 525 601 450 601C375 601 300 601 225 601C150 601 75 601 37.5 601L0 601Z" fill="#c62368"></path></svg>