<svg id="visual" viewBox="0 0 900 600" width="900" height="600" xmlns="http://www.w3.org/2000/svg" xmlns:xlink="http://www.w3.org/1999/xlink" version="1.1"><rect x="0" y="0" width="900" height="600" fill="#000000"></rect><path d="M0 28L25 26.2C50 24.3 100 20.7 150 22.2C200 23.7 250 30.3 300 30.2C350 30 400 23 450 22.5C500 22 550 28 600 29C650 30 700 26 750 23.5C800 21 850 20 875 19.5L900 19L900 0L875 0C850 0 800 0 750 0C700 0 650 0 600 0C550 0 500 0 450 0C400 0 350 0 300 0C250 0 200 0 150 0C100 0 50 0 25 0L0 0Z" fill="#001220" stroke-linecap="round" stroke-linejoin="miter"></path></svg>